<svg width="27" height="31" viewBox="0 0 27 31" fill="none" xmlns="http://www.w3.org/2000/svg">
<path d="M13.6911 30.6903C14.6891 30.6903 15.6462 30.2913 16.3519 29.581C17.0576 28.8707 17.4541 27.9073 17.4541 26.9028H9.92806C9.92806 27.9073 10.3245 28.8707 11.0302 29.581C11.7359 30.2913 12.6931 30.6903 13.6911 30.6903ZM15.5632 2.47156C15.5894 2.20824 15.5606 1.94231 15.4785 1.69091C15.3963 1.4395 15.2628 1.20822 15.0864 1.01197C14.91 0.815715 14.6947 0.658852 14.4543 0.551496C14.214 0.444139 13.954 0.388672 13.6911 0.388672C13.4281 0.388672 13.1681 0.444139 12.9278 0.551496C12.6875 0.658852 12.4722 0.815715 12.2958 1.01197C12.1194 1.20822 11.9858 1.4395 11.9037 1.69091C11.8216 1.94231 11.7927 2.20824 11.819 2.47156C9.69234 2.90694 7.78054 4.06867 6.40731 5.76006C5.03408 7.45144 4.2838 9.56853 4.28353 11.7528C4.28353 13.8322 3.34277 23.1153 0.520508 25.0091H26.8617C24.0394 23.1153 23.0986 13.8322 23.0986 11.7528C23.0986 7.16995 19.8624 3.34458 15.5632 2.47156Z" fill="black"/>
</svg>
