<svg width="1082" height="29" viewBox="0 0 1082 29" fill="none" xmlns="http://www.w3.org/2000/svg">
<path d="M1007.98 6.62258C1009.19 6.62258 1010.17 5.64298 1010.17 4.43458C1010.17 3.22618 1009.19 2.24658 1007.98 2.24658C1006.77 2.24658 1005.79 3.22618 1005.79 4.43458C1005.79 5.64298 1006.77 6.62258 1007.98 6.62258Z" fill="#F8F8F8"/>
<path d="M1012.24 8.28047V20.4195H1016.01V14.4165C1016.01 12.8325 1016.3 11.2985 1018.27 11.2985C1020.2 11.2985 1020.23 13.1095 1020.23 14.5165V20.4205H1024V13.7635C1024 10.4935 1023.3 7.98047 1019.47 7.98047C1017.64 7.98047 1016.41 8.98747 1015.91 9.94047H1015.85V8.28047H1012.24ZM1006.09 8.28047H1009.87V20.4195H1006.09V8.28047Z" fill="#F8F8F8"/>
<path d="M1082 4.29902L1079.54 4.68439L1081.18 2.75755L1078.3 3.52829C1074.61 -0.32539 1068.86 3.91366 1070.5 7.38197C1063.93 7.38197 1060.64 2.75755 1060.64 2.75755C1060.64 2.75755 1058.18 6.22586 1062.29 8.92344L1059.82 8.1527C1059.82 10.4649 1061.46 12.0064 1064.34 12.7771H1061.46C1063.11 15.8601 1065.98 15.8601 1065.98 15.8601C1065.98 15.8601 1063.52 17.7869 1059 17.7869C1072.55 23.9528 1080.77 12.3918 1079.54 6.22586L1082 4.29902Z" fill="#F8F8F8"/>
<path d="M960 2.46715C960 2.3447 959.947 2.22727 959.854 2.14069C959.76 2.0541 959.633 2.00546 959.5 2.00546H957C955.741 1.94756 954.509 2.35209 953.572 3.13067C952.635 3.90925 952.07 4.99858 952 6.16066V8.65378H949.5C949.367 8.65378 949.24 8.70242 949.146 8.78901C949.053 8.87559 949 8.99302 949 9.11547V11.5163C949 11.6387 949.053 11.7561 949.146 11.8427C949.24 11.9293 949.367 11.9779 949.5 11.9779H952V18.1646C952 18.287 952.053 18.4045 952.146 18.491C952.24 18.5776 952.367 18.6263 952.5 18.6263H955.5C955.633 18.6263 955.76 18.5776 955.854 18.491C955.947 18.4045 956 18.287 956 18.1646V11.9779H958.62C958.731 11.9794 958.84 11.9466 958.928 11.8847C959.017 11.8229 959.081 11.7354 959.11 11.6363L959.83 9.23551C959.85 9.16729 959.853 9.09577 959.838 9.02645C959.823 8.95712 959.791 8.89185 959.745 8.83566C959.699 8.77946 959.639 8.73384 959.57 8.70231C959.502 8.67078 959.427 8.65418 959.35 8.65378H956V6.16066C956.025 5.9321 956.141 5.72031 956.326 5.56664C956.511 5.41298 956.751 5.32847 957 5.32962H959.5C959.633 5.32962 959.76 5.28098 959.854 5.19439C959.947 5.10781 960 4.99038 960 4.86793V2.46715Z" fill="#F8F8F8"/>
<path d="M11.8977 25.0455C10.1591 25.0455 8.62216 24.8068 7.28693 24.3295C5.9517 23.858 4.82955 23.1619 3.92045 22.2415C3.01136 21.321 2.32386 20.1932 1.85795 18.858C1.39205 17.5227 1.15909 15.9943 1.15909 14.2727C1.15909 12.608 1.39489 11.1193 1.86648 9.80682C2.34375 8.49432 3.03409 7.38068 3.9375 6.46591C4.84659 5.54545 5.94886 4.84375 7.24432 4.36079C8.54545 3.87784 10.017 3.63636 11.6591 3.63636C13.2557 3.63636 14.6534 3.89773 15.8523 4.42045C17.0568 4.9375 18.0625 5.6392 18.8693 6.52557C19.6818 7.40625 20.2898 8.39773 20.6932 9.5C21.1023 10.6023 21.3068 11.7386 21.3068 12.9091C21.3068 13.733 21.267 14.5682 21.1875 15.4148C21.108 16.2614 20.9403 17.0398 20.6847 17.75C20.429 18.4545 20.0341 19.0227 19.5 19.4545C18.9716 19.8864 18.2557 20.1023 17.3523 20.1023C16.9545 20.1023 16.517 20.0398 16.0398 19.9148C15.5625 19.7898 15.1392 19.5824 14.7699 19.2926C14.4006 19.0028 14.1818 18.6136 14.1136 18.125H14.0114C13.875 18.4545 13.6648 18.767 13.3807 19.0625C13.1023 19.358 12.7358 19.5937 12.2812 19.7699C11.8324 19.946 11.2841 20.0227 10.6364 20C9.89773 19.9716 9.24716 19.8068 8.68466 19.5057C8.12216 19.1989 7.65057 18.7841 7.26989 18.2614C6.89489 17.733 6.6108 17.1222 6.41761 16.429C6.23011 15.7301 6.13636 14.9773 6.13636 14.1705C6.13636 13.4034 6.25 12.7017 6.47727 12.0653C6.70455 11.429 7.01989 10.8722 7.4233 10.3949C7.83239 9.91761 8.30966 9.53693 8.85511 9.25284C9.40625 8.96307 10 8.78409 10.6364 8.71591C11.2045 8.65909 11.7216 8.68466 12.1875 8.79261C12.6534 8.89489 13.0369 9.05114 13.3381 9.26136C13.6392 9.46591 13.8295 9.69318 13.9091 9.94318H14.0114V8.98864H15.8182V16.6932C15.8182 17.1705 15.9517 17.5909 16.2188 17.9545C16.4858 18.3182 16.875 18.5 17.3864 18.5C17.9659 18.5 18.4091 18.3011 18.7159 17.9034C19.0284 17.5057 19.2415 16.892 19.3551 16.0625C19.4744 15.233 19.5341 14.1705 19.5341 12.875C19.5341 12.1136 19.429 11.3636 19.2188 10.625C19.0142 9.88068 18.7017 9.18466 18.2812 8.53693C17.8665 7.8892 17.3409 7.31818 16.7045 6.82386C16.0682 6.32955 15.321 5.94318 14.4631 5.66477C13.6108 5.38068 12.642 5.23864 11.5568 5.23864C10.2216 5.23864 9.02557 5.44602 7.96875 5.86079C6.91761 6.26989 6.02273 6.86932 5.28409 7.65909C4.55114 8.44318 3.99148 9.39773 3.60511 10.5227C3.22443 11.642 3.03409 12.9148 3.03409 14.3409C3.03409 15.7898 3.22443 17.0767 3.60511 18.2017C3.99148 19.3267 4.55966 20.2756 5.30966 21.0483C6.06534 21.821 7 22.4091 8.11364 22.8125C9.22727 23.2102 10.5114 23.4091 11.9659 23.4091C12.5909 23.4091 13.2074 23.3494 13.8153 23.2301C14.4233 23.1108 14.9602 22.9801 15.4261 22.8381C15.892 22.696 16.2273 22.5909 16.4318 22.5227L16.9091 24.0909C16.5568 24.2386 16.0966 24.3864 15.5284 24.5341C14.9659 24.6818 14.3636 24.804 13.7216 24.9006C13.0852 24.9972 12.4773 25.0455 11.8977 25.0455ZM10.9091 18.2614C11.6705 18.2614 12.2869 18.108 12.7585 17.8011C13.2301 17.4943 13.5739 17.0312 13.7898 16.4119C14.0057 15.7926 14.1136 15.0114 14.1136 14.0682C14.1136 13.1136 13.9943 12.3693 13.7557 11.8352C13.517 11.3011 13.1648 10.9261 12.6989 10.7102C12.233 10.4943 11.6591 10.3864 10.9773 10.3864C10.3295 10.3864 9.77557 10.5568 9.31534 10.8977C8.8608 11.233 8.51136 11.6818 8.26705 12.2443C8.02841 12.8011 7.90909 13.4091 7.90909 14.0682C7.90909 14.7955 8.00568 15.4801 8.19886 16.1222C8.39205 16.7585 8.70739 17.2756 9.14489 17.6733C9.58239 18.0653 10.1705 18.2614 10.9091 18.2614ZM34.1357 9.90909C34.0334 9.04545 33.6186 8.375 32.8913 7.89773C32.1641 7.42045 31.272 7.18182 30.2152 7.18182C29.4425 7.18182 28.7663 7.30682 28.1868 7.55682C27.6129 7.80682 27.1641 8.15057 26.8402 8.58807C26.522 9.02557 26.3629 9.52273 26.3629 10.0795C26.3629 10.5455 26.4737 10.946 26.6953 11.2812C26.9226 11.6108 27.2124 11.8864 27.5646 12.108C27.9169 12.3239 28.2862 12.5028 28.6726 12.6449C29.0589 12.7812 29.4141 12.892 29.7379 12.9773L31.5107 13.4545C31.9652 13.5739 32.4709 13.7386 33.0277 13.9489C33.5902 14.1591 34.1271 14.446 34.6385 14.8097C35.1555 15.1676 35.5817 15.6278 35.9169 16.1903C36.2521 16.7528 36.4197 17.4432 36.4197 18.2614C36.4197 19.2045 36.1726 20.0568 35.6783 20.8182C35.1896 21.5795 34.4737 22.1847 33.5305 22.6335C32.593 23.0824 31.4538 23.3068 30.1129 23.3068C28.8629 23.3068 27.7805 23.1051 26.8658 22.7017C25.9567 22.2983 25.2408 21.7358 24.718 21.0142C24.201 20.2926 23.9084 19.4545 23.8402 18.5H26.022C26.0788 19.1591 26.3004 19.7045 26.6868 20.1364C27.0788 20.5625 27.5732 20.8807 28.1697 21.0909C28.772 21.2955 29.4197 21.3977 30.1129 21.3977C30.9197 21.3977 31.6442 21.267 32.2862 21.0057C32.9283 20.7386 33.4368 20.3693 33.8118 19.8977C34.1868 19.4205 34.3743 18.8636 34.3743 18.2273C34.3743 17.6477 34.2124 17.1761 33.8885 16.8125C33.5646 16.4489 33.1385 16.1534 32.6101 15.9261C32.0817 15.6989 31.5107 15.5 30.897 15.3295L28.7493 14.7159C27.3857 14.3239 26.3061 13.7642 25.5107 13.0369C24.7152 12.3097 24.3175 11.358 24.3175 10.1818C24.3175 9.20454 24.5817 8.35227 25.1101 7.625C25.6442 6.89205 26.3601 6.32386 27.2578 5.92045C28.1612 5.51136 29.1697 5.30682 30.2834 5.30682C31.4084 5.30682 32.4084 5.50852 33.2834 5.91193C34.1584 6.30966 34.8516 6.85511 35.3629 7.54829C35.88 8.24148 36.1527 9.02841 36.1811 9.90909H34.1357ZM44.9403 23.2727C43.7585 23.2727 42.7216 22.9915 41.8295 22.429C40.9432 21.8665 40.25 21.0795 39.75 20.0682C39.2557 19.0568 39.0085 17.875 39.0085 16.5227C39.0085 15.1591 39.2557 13.9687 39.75 12.9517C40.25 11.9347 40.9432 11.1449 41.8295 10.5824C42.7216 10.0199 43.7585 9.73864 44.9403 9.73864C46.1222 9.73864 47.1563 10.0199 48.0426 10.5824C48.9347 11.1449 49.6278 11.9347 50.1222 12.9517C50.6222 13.9687 50.8722 15.1591 50.8722 16.5227C50.8722 17.875 50.6222 19.0568 50.1222 20.0682C49.6278 21.0795 48.9347 21.8665 48.0426 22.429C47.1563 22.9915 46.1222 23.2727 44.9403 23.2727ZM44.9403 21.4659C45.8381 21.4659 46.5767 21.2358 47.1562 20.7756C47.7358 20.3153 48.1648 19.7102 48.4432 18.9602C48.7216 18.2102 48.8608 17.3977 48.8608 16.5227C48.8608 15.6477 48.7216 14.8324 48.4432 14.0767C48.1648 13.321 47.7358 12.7102 47.1562 12.2443C46.5767 11.7784 45.8381 11.5455 44.9403 11.5455C44.0426 11.5455 43.304 11.7784 42.7244 12.2443C42.1449 12.7102 41.7159 13.321 41.4375 14.0767C41.1591 14.8324 41.0199 15.6477 41.0199 16.5227C41.0199 17.3977 41.1591 18.2102 41.4375 18.9602C41.7159 19.7102 42.1449 20.3153 42.7244 20.7756C43.304 21.2358 44.0426 21.4659 44.9403 21.4659ZM59.2607 23.2727C58.0334 23.2727 56.9766 22.983 56.0902 22.4034C55.2038 21.8239 54.522 21.0256 54.0447 20.0085C53.5675 18.9915 53.3288 17.8295 53.3288 16.5227C53.3288 15.1932 53.5732 14.0199 54.0618 13.0028C54.5561 11.9801 55.2436 11.1818 56.1243 10.608C57.0107 10.0284 58.0447 9.73864 59.2266 9.73864C60.147 9.73864 60.9766 9.90909 61.7152 10.25C62.4538 10.5909 63.0589 11.0682 63.5305 11.6818C64.0021 12.2955 64.2947 13.0114 64.4084 13.8295H62.397C62.2436 13.233 61.9027 12.7045 61.3743 12.2443C60.8516 11.7784 60.147 11.5455 59.2607 11.5455C58.4766 11.5455 57.7891 11.75 57.1982 12.1591C56.6129 12.5625 56.1555 13.1335 55.826 13.8722C55.5021 14.6051 55.3402 15.4659 55.3402 16.4545C55.3402 17.4659 55.4993 18.3466 55.8175 19.0966C56.1413 19.8466 56.5959 20.429 57.1811 20.8438C57.772 21.2585 58.4652 21.4659 59.2607 21.4659C59.7834 21.4659 60.2578 21.375 60.6839 21.1932C61.1101 21.0114 61.4709 20.75 61.7663 20.4091C62.0618 20.0682 62.272 19.6591 62.397 19.1818H64.4084C64.2947 19.9545 64.0135 20.6506 63.5646 21.2699C63.1214 21.8835 62.5334 22.3722 61.8004 22.7358C61.0732 23.0938 60.2266 23.2727 59.2607 23.2727ZM67.3487 23V9.90909H69.3601V23H67.3487ZM68.3714 7.72727C67.9794 7.72727 67.6413 7.59375 67.3572 7.3267C67.0788 7.05966 66.9396 6.73864 66.9396 6.36364C66.9396 5.98864 67.0788 5.66761 67.3572 5.40057C67.6413 5.13352 67.9794 5 68.3714 5C68.7635 5 69.0987 5.13352 69.3771 5.40057C69.6612 5.66761 69.8033 5.98864 69.8033 6.36364C69.8033 6.73864 69.6612 7.05966 69.3771 7.3267C69.0987 7.59375 68.7635 7.72727 68.3714 7.72727ZM76.8963 23.3068C76.0668 23.3068 75.3139 23.1506 74.6378 22.8381C73.9616 22.5199 73.4247 22.0625 73.027 21.4659C72.6293 20.8636 72.4304 20.1364 72.4304 19.2841C72.4304 18.5341 72.5781 17.9261 72.8736 17.4602C73.169 16.9886 73.5639 16.6193 74.0582 16.3523C74.5526 16.0852 75.098 15.8864 75.6946 15.7557C76.2969 15.6193 76.902 15.5114 77.5099 15.4318C78.3054 15.3295 78.9503 15.2528 79.4446 15.2017C79.9446 15.1449 80.3082 15.0511 80.5355 14.9205C80.7685 14.7898 80.8849 14.5625 80.8849 14.2386V14.1705C80.8849 13.3295 80.6548 12.6761 80.1946 12.2102C79.7401 11.7443 79.0497 11.5114 78.1236 11.5114C77.1634 11.5114 76.4105 11.7216 75.8651 12.142C75.3196 12.5625 74.9361 13.0114 74.7145 13.4886L72.8054 12.8068C73.1463 12.0114 73.6009 11.392 74.169 10.9489C74.7429 10.5 75.3679 10.1875 76.044 10.0114C76.7259 9.82955 77.3963 9.73864 78.0554 9.73864C78.4759 9.73864 78.9588 9.78977 79.5043 9.89204C80.0554 9.98864 80.5866 10.1903 81.098 10.4972C81.6151 10.804 82.044 11.267 82.3849 11.8864C82.7259 12.5057 82.8963 13.3352 82.8963 14.375V23H80.8849V21.2273H80.7827C80.6463 21.5114 80.419 21.8153 80.1009 22.1392C79.7827 22.4631 79.3594 22.7386 78.831 22.9659C78.3026 23.1932 77.6577 23.3068 76.8963 23.3068ZM77.2031 21.5C77.9986 21.5 78.669 21.3438 79.2145 21.0312C79.7656 20.7188 80.1804 20.3153 80.4588 19.821C80.7429 19.3267 80.8849 18.8068 80.8849 18.2614V16.4205C80.7997 16.5227 80.6122 16.6165 80.3224 16.7017C80.0384 16.7812 79.7088 16.8523 79.3338 16.9148C78.9645 16.9716 78.6037 17.0227 78.2514 17.0682C77.9048 17.108 77.6236 17.142 77.4077 17.1705C76.8849 17.2386 76.3963 17.3494 75.9418 17.5028C75.4929 17.6506 75.1293 17.875 74.8509 18.1761C74.5781 18.4716 74.4418 18.875 74.4418 19.3864C74.4418 20.0852 74.7003 20.6136 75.2173 20.9716C75.7401 21.3239 76.402 21.5 77.2031 21.5ZM88.5788 5.54545V23H86.5675V5.54545H88.5788ZM97.206 23.2727C96.1151 23.2727 95.152 22.9972 94.3168 22.446C93.4815 21.8892 92.8281 21.1051 92.3565 20.0938C91.8849 19.0767 91.6491 17.875 91.6491 16.4886C91.6491 15.1136 91.8849 13.9205 92.3565 12.9091C92.8281 11.8977 93.4844 11.1165 94.3253 10.5653C95.1662 10.0142 96.1378 9.73864 97.2401 9.73864C98.0923 9.73864 98.7656 9.88068 99.2599 10.1648C99.7599 10.4432 100.141 10.7614 100.402 11.1193C100.669 11.4716 100.876 11.7614 101.024 11.9886H101.195V5.54545H103.206V23H101.263V20.9886H101.024C100.876 21.2273 100.666 21.5284 100.393 21.892C100.121 22.25 99.7315 22.571 99.2259 22.8551C98.7202 23.1335 98.0469 23.2727 97.206 23.2727ZM97.4787 21.4659C98.2855 21.4659 98.9673 21.2557 99.5241 20.8352C100.081 20.4091 100.504 19.821 100.794 19.071C101.084 18.3153 101.229 17.4432 101.229 16.4545C101.229 15.4773 101.087 14.6222 100.803 13.8892C100.518 13.1506 100.098 12.5767 99.5412 12.1676C98.9844 11.7528 98.2969 11.5455 97.4787 11.5455C96.6264 11.5455 95.9162 11.7642 95.348 12.2017C94.7855 12.6335 94.3622 13.2216 94.0781 13.9659C93.7997 14.7045 93.6605 15.5341 93.6605 16.4545C93.6605 17.3864 93.8026 18.233 94.0866 18.9943C94.3764 19.75 94.8026 20.3523 95.3651 20.8011C95.9332 21.2443 96.6378 21.4659 97.4787 21.4659ZM112.487 23.2727C111.305 23.2727 110.268 22.9915 109.376 22.429C108.49 21.8665 107.797 21.0795 107.297 20.0682C106.803 19.0568 106.555 17.875 106.555 16.5227C106.555 15.1591 106.803 13.9687 107.297 12.9517C107.797 11.9347 108.49 11.1449 109.376 10.5824C110.268 10.0199 111.305 9.73864 112.487 9.73864C113.669 9.73864 114.703 10.0199 115.589 10.5824C116.482 11.1449 117.175 11.9347 117.669 12.9517C118.169 13.9687 118.419 15.1591 118.419 16.5227C118.419 17.875 118.169 19.0568 117.669 20.0682C117.175 21.0795 116.482 21.8665 115.589 22.429C114.703 22.9915 113.669 23.2727 112.487 23.2727ZM112.487 21.4659C113.385 21.4659 114.124 21.2358 114.703 20.7756C115.283 20.3153 115.712 19.7102 115.99 18.9602C116.268 18.2102 116.408 17.3977 116.408 16.5227C116.408 15.6477 116.268 14.8324 115.99 14.0767C115.712 13.321 115.283 12.7102 114.703 12.2443C114.124 11.7784 113.385 11.5455 112.487 11.5455C111.589 11.5455 110.851 11.7784 110.271 12.2443C109.692 12.7102 109.263 13.321 108.984 14.0767C108.706 14.8324 108.567 15.6477 108.567 16.5227C108.567 17.3977 108.706 18.2102 108.984 18.9602C109.263 19.7102 109.692 20.3153 110.271 20.7756C110.851 21.2358 111.589 21.4659 112.487 21.4659ZM123.501 15.125V23H121.489V9.90909H123.433V11.9545H123.603C123.91 11.2898 124.376 10.7557 125.001 10.3523C125.626 9.94318 126.433 9.73864 127.421 9.73864C128.308 9.73864 129.083 9.92045 129.748 10.2841C130.413 10.642 130.93 11.1875 131.299 11.9205C131.668 12.6477 131.853 13.5682 131.853 14.6818V23H129.842V14.8182C129.842 13.7898 129.575 12.9886 129.04 12.4148C128.506 11.8352 127.773 11.5455 126.842 11.5455C126.2 11.5455 125.626 11.6847 125.12 11.9631C124.62 12.2415 124.225 12.6477 123.935 13.1818C123.646 13.7159 123.501 14.3636 123.501 15.125ZM140.847 23.2727C139.665 23.2727 138.628 22.9915 137.736 22.429C136.849 21.8665 136.156 21.0795 135.656 20.0682C135.162 19.0568 134.915 17.875 134.915 16.5227C134.915 15.1591 135.162 13.9687 135.656 12.9517C136.156 11.9347 136.849 11.1449 137.736 10.5824C138.628 10.0199 139.665 9.73864 140.847 9.73864C142.028 9.73864 143.063 10.0199 143.949 10.5824C144.841 11.1449 145.534 11.9347 146.028 12.9517C146.528 13.9687 146.778 15.1591 146.778 16.5227C146.778 17.875 146.528 19.0568 146.028 20.0682C145.534 21.0795 144.841 21.8665 143.949 22.429C143.063 22.9915 142.028 23.2727 140.847 23.2727ZM140.847 21.4659C141.744 21.4659 142.483 21.2358 143.062 20.7756C143.642 20.3153 144.071 19.7102 144.349 18.9602C144.628 18.2102 144.767 17.3977 144.767 16.5227C144.767 15.6477 144.628 14.8324 144.349 14.0767C144.071 13.321 143.642 12.7102 143.062 12.2443C142.483 11.7784 141.744 11.5455 140.847 11.5455C139.949 11.5455 139.21 11.7784 138.631 12.2443C138.051 12.7102 137.622 13.321 137.344 14.0767C137.065 14.8324 136.926 15.6477 136.926 16.5227C136.926 17.3977 137.065 18.2102 137.344 18.9602C137.622 19.7102 138.051 20.3153 138.631 20.7756C139.21 21.2358 139.949 21.4659 140.847 21.4659ZM149.849 23V9.90909H151.792V11.8864H151.928C152.167 11.2386 152.599 10.7131 153.224 10.3097C153.849 9.90625 154.553 9.70454 155.337 9.70454C155.485 9.70454 155.67 9.70739 155.891 9.71307C156.113 9.71875 156.281 9.72727 156.394 9.73864V11.7841C156.326 11.767 156.17 11.7415 155.925 11.7074C155.687 11.6676 155.434 11.6477 155.167 11.6477C154.531 11.6477 153.962 11.7812 153.462 12.0483C152.968 12.3097 152.576 12.6733 152.286 13.1392C152.002 13.5994 151.86 14.125 151.86 14.7159V23H149.849ZM165.494 23V21.4659L171.256 15.1591C171.932 14.4205 172.489 13.7784 172.926 13.233C173.364 12.6818 173.688 12.1648 173.898 11.6818C174.114 11.1932 174.222 10.6818 174.222 10.1477C174.222 9.53409 174.074 9.00284 173.778 8.55398C173.489 8.10511 173.091 7.75852 172.585 7.5142C172.08 7.26989 171.511 7.14773 170.881 7.14773C170.21 7.14773 169.625 7.28693 169.125 7.56534C168.631 7.83807 168.247 8.22159 167.974 8.71591C167.707 9.21023 167.574 9.78977 167.574 10.4545H165.562C165.562 9.43182 165.798 8.53409 166.27 7.76136C166.741 6.98864 167.384 6.38636 168.196 5.95454C169.014 5.52273 169.932 5.30682 170.949 5.30682C171.972 5.30682 172.878 5.52273 173.668 5.95454C174.457 6.38636 175.077 6.96875 175.526 7.7017C175.974 8.43466 176.199 9.25 176.199 10.1477C176.199 10.7898 176.082 11.4176 175.849 12.0312C175.622 12.6392 175.224 13.3182 174.656 14.0682C174.094 14.8125 173.312 15.7216 172.312 16.7955L168.392 20.9886V21.125H176.506V23H165.494ZM185.719 23.2386C184.435 23.2386 183.341 22.8892 182.438 22.1903C181.534 21.4858 180.844 20.4659 180.366 19.1307C179.889 17.7898 179.651 16.1705 179.651 14.2727C179.651 12.3864 179.889 10.7756 180.366 9.44034C180.849 8.09943 181.543 7.0767 182.446 6.37216C183.355 5.66193 184.446 5.30682 185.719 5.30682C186.991 5.30682 188.08 5.66193 188.983 6.37216C189.892 7.0767 190.585 8.09943 191.062 9.44034C191.545 10.7756 191.787 12.3864 191.787 14.2727C191.787 16.1705 191.548 17.7898 191.071 19.1307C190.594 20.4659 189.903 21.4858 189 22.1903C188.097 22.8892 187.003 23.2386 185.719 23.2386ZM185.719 21.3636C186.991 21.3636 187.98 20.75 188.685 19.5227C189.389 18.2955 189.741 16.5455 189.741 14.2727C189.741 12.7614 189.58 11.4744 189.256 10.4119C188.938 9.34943 188.477 8.53977 187.875 7.98295C187.278 7.42614 186.56 7.14773 185.719 7.14773C184.457 7.14773 183.472 7.76989 182.761 9.0142C182.051 10.2528 181.696 12.0057 181.696 14.2727C181.696 15.7841 181.855 17.0682 182.173 18.125C182.491 19.1818 182.949 19.9858 183.545 20.5369C184.148 21.0881 184.872 21.3636 185.719 21.3636ZM201.162 5.54545V23H199.048V7.76136H198.946L194.685 10.5909V8.44318L199.048 5.54545H201.162ZM212.318 5.54545V23H210.205V7.76136H210.102L205.841 10.5909V8.44318L210.205 5.54545H212.318ZM224.872 13.3352V15.2102H217.236V13.3352H224.872ZM227.557 23V21.4659L233.318 15.1591C233.994 14.4205 234.551 13.7784 234.989 13.233C235.426 12.6818 235.75 12.1648 235.96 11.6818C236.176 11.1932 236.284 10.6818 236.284 10.1477C236.284 9.53409 236.136 9.00284 235.841 8.55398C235.551 8.10511 235.153 7.75852 234.648 7.5142C234.142 7.26989 233.574 7.14773 232.943 7.14773C232.273 7.14773 231.688 7.28693 231.188 7.56534C230.693 7.83807 230.31 8.22159 230.037 8.71591C229.77 9.21023 229.636 9.78977 229.636 10.4545H227.625C227.625 9.43182 227.861 8.53409 228.332 7.76136C228.804 6.98864 229.446 6.38636 230.259 5.95454C231.077 5.52273 231.994 5.30682 233.011 5.30682C234.034 5.30682 234.94 5.52273 235.73 5.95454C236.52 6.38636 237.139 6.96875 237.588 7.7017C238.037 8.43466 238.261 9.25 238.261 10.1477C238.261 10.7898 238.145 11.4176 237.912 12.0312C237.685 12.6392 237.287 13.3182 236.719 14.0682C236.156 14.8125 235.375 15.7216 234.375 16.7955L230.455 20.9886V21.125H238.568V23H227.557ZM247.781 23.2386C246.497 23.2386 245.403 22.8892 244.5 22.1903C243.597 21.4858 242.906 20.4659 242.429 19.1307C241.952 17.7898 241.713 16.1705 241.713 14.2727C241.713 12.3864 241.952 10.7756 242.429 9.44034C242.912 8.09943 243.605 7.0767 244.509 6.37216C245.418 5.66193 246.509 5.30682 247.781 5.30682C249.054 5.30682 250.142 5.66193 251.045 6.37216C251.955 7.0767 252.648 8.09943 253.125 9.44034C253.608 10.7756 253.849 12.3864 253.849 14.2727C253.849 16.1705 253.611 17.7898 253.134 19.1307C252.656 20.4659 251.966 21.4858 251.062 22.1903C250.159 22.8892 249.065 23.2386 247.781 23.2386ZM247.781 21.3636C249.054 21.3636 250.043 20.75 250.747 19.5227C251.452 18.2955 251.804 16.5455 251.804 14.2727C251.804 12.7614 251.642 11.4744 251.318 10.4119C251 9.34943 250.54 8.53977 249.938 7.98295C249.341 7.42614 248.622 7.14773 247.781 7.14773C246.52 7.14773 245.534 7.76989 244.824 9.0142C244.114 10.2528 243.759 12.0057 243.759 14.2727C243.759 15.7841 243.918 17.0682 244.236 18.125C244.554 19.1818 245.011 19.9858 245.608 20.5369C246.21 21.0881 246.935 21.3636 247.781 21.3636ZM257.088 23V21.4659L262.849 15.1591C263.526 14.4205 264.082 13.7784 264.52 13.233C264.957 12.6818 265.281 12.1648 265.491 11.6818C265.707 11.1932 265.815 10.6818 265.815 10.1477C265.815 9.53409 265.668 9.00284 265.372 8.55398C265.082 8.10511 264.685 7.75852 264.179 7.5142C263.673 7.26989 263.105 7.14773 262.474 7.14773C261.804 7.14773 261.219 7.28693 260.719 7.56534C260.224 7.83807 259.841 8.22159 259.568 8.71591C259.301 9.21023 259.168 9.78977 259.168 10.4545H257.156C257.156 9.43182 257.392 8.53409 257.864 7.76136C258.335 6.98864 258.977 6.38636 259.79 5.95454C260.608 5.52273 261.526 5.30682 262.543 5.30682C263.565 5.30682 264.472 5.52273 265.261 5.95454C266.051 6.38636 266.67 6.96875 267.119 7.7017C267.568 8.43466 267.793 9.25 267.793 10.1477C267.793 10.7898 267.676 11.4176 267.443 12.0312C267.216 12.6392 266.818 13.3182 266.25 14.0682C265.688 14.8125 264.906 15.7216 263.906 16.7955L259.986 20.9886V21.125H268.099V23H257.088ZM277.756 5.54545V23H275.642V7.76136H275.54L271.278 10.5909V8.44318L275.642 5.54545H277.756ZM302.378 7.42045V5.54545H315.469V7.42045H309.98V23H307.866V7.42045H302.378ZM322.048 23.2727C320.787 23.2727 319.699 22.9943 318.784 22.4375C317.875 21.875 317.173 21.0909 316.679 20.0852C316.19 19.0739 315.946 17.8977 315.946 16.5568C315.946 15.2159 316.19 14.0341 316.679 13.0114C317.173 11.983 317.861 11.1818 318.741 10.608C319.628 10.0284 320.662 9.73864 321.844 9.73864C322.526 9.73864 323.199 9.85227 323.864 10.0795C324.528 10.3068 325.134 10.6761 325.679 11.1875C326.224 11.6932 326.659 12.3636 326.983 13.1989C327.307 14.0341 327.469 15.0625 327.469 16.2841V17.1364H317.378V15.3977H325.423C325.423 14.6591 325.276 14 324.98 13.4205C324.69 12.8409 324.276 12.3835 323.736 12.0483C323.202 11.7131 322.571 11.5455 321.844 11.5455C321.043 11.5455 320.349 11.7443 319.764 12.142C319.185 12.5341 318.739 13.0455 318.426 13.6761C318.114 14.3068 317.957 14.983 317.957 15.7045V16.8636C317.957 17.8523 318.128 18.6903 318.469 19.3778C318.815 20.0597 319.295 20.5795 319.909 20.9375C320.523 21.2898 321.236 21.4659 322.048 21.4659C322.577 21.4659 323.054 21.392 323.48 21.2443C323.912 21.0909 324.284 20.8636 324.597 20.5625C324.909 20.2557 325.151 19.875 325.321 19.4205L327.264 19.9659C327.06 20.625 326.716 21.2045 326.233 21.7045C325.75 22.1989 325.153 22.5852 324.443 22.8636C323.733 23.1364 322.935 23.2727 322.048 23.2727ZM330.528 23V9.90909H332.472V11.8864H332.608C332.847 11.2386 333.278 10.7131 333.903 10.3097C334.528 9.90625 335.233 9.70454 336.017 9.70454C336.165 9.70454 336.349 9.70739 336.571 9.71307C336.793 9.71875 336.96 9.72727 337.074 9.73864V11.7841C337.006 11.767 336.849 11.7415 336.605 11.7074C336.366 11.6676 336.114 11.6477 335.847 11.6477C335.21 11.6477 334.642 11.7812 334.142 12.0483C333.648 12.3097 333.256 12.6733 332.966 13.1392C332.682 13.5994 332.54 14.125 332.54 14.7159V23H330.528ZM339.458 23V9.90909H341.401V11.9545H341.572C341.844 11.2557 342.285 10.7131 342.893 10.3267C343.501 9.93466 344.231 9.73864 345.083 9.73864C345.947 9.73864 346.665 9.93466 347.239 10.3267C347.819 10.7131 348.271 11.2557 348.594 11.9545H348.731C349.066 11.2784 349.569 10.7415 350.239 10.3438C350.91 9.94034 351.714 9.73864 352.651 9.73864C353.822 9.73864 354.779 10.1051 355.523 10.8381C356.268 11.5653 356.64 12.6989 356.64 14.2386V23H354.629V14.2386C354.629 13.2727 354.364 12.5824 353.836 12.1676C353.308 11.7528 352.685 11.5455 351.969 11.5455C351.049 11.5455 350.336 11.8239 349.83 12.3807C349.325 12.9318 349.072 13.6307 349.072 14.4773V23H347.026V14.0341C347.026 13.2898 346.785 12.6903 346.302 12.2358C345.819 11.7756 345.197 11.5455 344.435 11.5455C343.913 11.5455 343.424 11.6847 342.969 11.9631C342.521 12.2415 342.157 12.6278 341.879 13.1222C341.606 13.6108 341.469 14.1761 341.469 14.8182V23H339.458ZM369.59 12.8409L367.783 13.3523C367.67 13.0511 367.502 12.7585 367.281 12.4744C367.065 12.1847 366.769 11.946 366.394 11.7585C366.019 11.571 365.539 11.4773 364.954 11.4773C364.153 11.4773 363.485 11.6619 362.951 12.0312C362.423 12.3949 362.158 12.858 362.158 13.4205C362.158 13.9205 362.34 14.3153 362.704 14.6051C363.067 14.8949 363.636 15.1364 364.408 15.3295L366.352 15.8068C367.522 16.0909 368.394 16.5256 368.968 17.1108C369.542 17.6903 369.829 18.4375 369.829 19.3523C369.829 20.1023 369.613 20.7727 369.181 21.3636C368.755 21.9545 368.158 22.4205 367.391 22.7614C366.624 23.1023 365.732 23.2727 364.715 23.2727C363.38 23.2727 362.275 22.983 361.4 22.4034C360.525 21.8239 359.971 20.9773 359.738 19.8636L361.647 19.3864C361.829 20.0909 362.173 20.6193 362.678 20.9716C363.19 21.3239 363.857 21.5 364.681 21.5C365.619 21.5 366.363 21.3011 366.914 20.9034C367.471 20.5 367.749 20.017 367.749 19.4545C367.749 19 367.59 18.6193 367.272 18.3125C366.954 18 366.465 17.767 365.806 17.6136L363.624 17.1023C362.425 16.8182 361.545 16.3778 360.982 15.7812C360.425 15.179 360.147 14.4261 360.147 13.5227C360.147 12.7841 360.354 12.1307 360.769 11.5625C361.19 10.9943 361.761 10.5483 362.482 10.2244C363.21 9.90057 364.033 9.73864 364.954 9.73864C366.249 9.73864 367.266 10.0227 368.005 10.5909C368.749 11.1591 369.278 11.9091 369.59 12.8409ZM384.55 23.2386C383.402 23.2386 382.413 23.0284 381.584 22.608C380.754 22.1875 380.115 21.6108 379.666 20.8778C379.217 20.1449 378.993 19.3068 378.993 18.3636C378.993 17.6364 379.146 16.9915 379.453 16.429C379.766 15.8608 380.195 15.3352 380.74 14.8523C381.291 14.3636 381.925 13.875 382.641 13.3864L385.163 11.5114C385.658 11.1875 386.053 10.8409 386.348 10.4716C386.649 10.1023 386.8 9.61932 386.8 9.02273C386.8 8.57955 386.604 8.15057 386.212 7.73579C385.825 7.32102 385.317 7.11364 384.686 7.11364C384.243 7.11364 383.851 7.22727 383.51 7.45454C383.175 7.67614 382.911 7.96023 382.717 8.30682C382.53 8.64773 382.436 9 382.436 9.36364C382.436 9.77273 382.547 10.1875 382.768 10.608C382.996 11.0227 383.283 11.4489 383.629 11.8864C383.982 12.3182 384.345 12.7614 384.72 13.2159L392.732 23H390.311L383.697 15.0227C383.084 14.2841 382.527 13.6136 382.027 13.0114C381.527 12.4091 381.129 11.8153 380.834 11.2301C380.538 10.6449 380.391 10.0114 380.391 9.32954C380.391 8.54545 380.564 7.85795 380.911 7.26704C381.263 6.67045 381.754 6.20739 382.385 5.87784C383.021 5.54261 383.766 5.375 384.618 5.375C385.493 5.375 386.246 5.54545 386.876 5.88636C387.507 6.22159 387.993 6.66761 388.334 7.22443C388.675 7.77557 388.845 8.375 388.845 9.02273C388.845 9.85795 388.638 10.5824 388.223 11.196C387.808 11.8097 387.243 12.3807 386.527 12.9091L383.05 15.5C382.266 16.0795 381.734 16.642 381.456 17.1875C381.178 17.733 381.038 18.125 381.038 18.3636C381.038 18.9091 381.18 19.4176 381.464 19.8892C381.749 20.3608 382.149 20.7415 382.666 21.0312C383.183 21.321 383.788 21.4659 384.482 21.4659C385.141 21.4659 385.783 21.3267 386.408 21.0483C387.033 20.7642 387.598 20.3551 388.104 19.821C388.615 19.2869 389.018 18.6449 389.314 17.8949C389.615 17.1449 389.766 16.3011 389.766 15.3636H391.709C391.709 16.5227 391.575 17.4687 391.308 18.2017C391.041 18.9347 390.74 19.5085 390.405 19.9233C390.07 20.3381 389.8 20.6477 389.595 20.8523C389.527 20.9375 389.464 21.0227 389.408 21.108C389.351 21.1932 389.288 21.2784 389.22 21.3636C388.658 21.9943 387.947 22.4659 387.089 22.7784C386.232 23.0852 385.385 23.2386 384.55 23.2386ZM416.026 11H413.913C413.788 10.392 413.569 9.85795 413.256 9.39773C412.95 8.9375 412.575 8.55114 412.131 8.23864C411.694 7.92045 411.208 7.68182 410.674 7.52273C410.14 7.36364 409.583 7.28409 409.004 7.28409C407.947 7.28409 406.989 7.55114 406.131 8.08523C405.279 8.61932 404.6 9.40625 404.094 10.446C403.594 11.4858 403.344 12.7614 403.344 14.2727C403.344 15.7841 403.594 17.0597 404.094 18.0994C404.6 19.1392 405.279 19.9261 406.131 20.4602C406.989 20.9943 407.947 21.2614 409.004 21.2614C409.583 21.2614 410.14 21.1818 410.674 21.0227C411.208 20.8636 411.694 20.6278 412.131 20.3153C412.575 19.9972 412.95 19.608 413.256 19.1477C413.569 18.6818 413.788 18.1477 413.913 17.5455H416.026C415.867 18.4375 415.577 19.2358 415.157 19.9403C414.737 20.6449 414.214 21.2443 413.589 21.7386C412.964 22.2273 412.262 22.5994 411.484 22.8551C410.711 23.1108 409.884 23.2386 409.004 23.2386C407.515 23.2386 406.191 22.875 405.032 22.1477C403.873 21.4205 402.961 20.3864 402.296 19.0455C401.631 17.7045 401.299 16.1136 401.299 14.2727C401.299 12.4318 401.631 10.8409 402.296 9.5C402.961 8.15909 403.873 7.125 405.032 6.39773C406.191 5.67045 407.515 5.30682 409.004 5.30682C409.884 5.30682 410.711 5.43466 411.484 5.69034C412.262 5.94602 412.964 6.32102 413.589 6.81534C414.214 7.30398 414.737 7.90057 415.157 8.60511C415.577 9.30398 415.867 10.1023 416.026 11ZM424.487 23.2727C423.305 23.2727 422.268 22.9915 421.376 22.429C420.49 21.8665 419.797 21.0795 419.297 20.0682C418.803 19.0568 418.555 17.875 418.555 16.5227C418.555 15.1591 418.803 13.9687 419.297 12.9517C419.797 11.9347 420.49 11.1449 421.376 10.5824C422.268 10.0199 423.305 9.73864 424.487 9.73864C425.669 9.73864 426.703 10.0199 427.589 10.5824C428.482 11.1449 429.175 11.9347 429.669 12.9517C430.169 13.9687 430.419 15.1591 430.419 16.5227C430.419 17.875 430.169 19.0568 429.669 20.0682C429.175 21.0795 428.482 21.8665 427.589 22.429C426.703 22.9915 425.669 23.2727 424.487 23.2727ZM424.487 21.4659C425.385 21.4659 426.124 21.2358 426.703 20.7756C427.283 20.3153 427.712 19.7102 427.99 18.9602C428.268 18.2102 428.408 17.3977 428.408 16.5227C428.408 15.6477 428.268 14.8324 427.99 14.0767C427.712 13.321 427.283 12.7102 426.703 12.2443C426.124 11.7784 425.385 11.5455 424.487 11.5455C423.589 11.5455 422.851 11.7784 422.271 12.2443C421.692 12.7102 421.263 13.321 420.984 14.0767C420.706 14.8324 420.567 15.6477 420.567 16.5227C420.567 17.3977 420.706 18.2102 420.984 18.9602C421.263 19.7102 421.692 20.3153 422.271 20.7756C422.851 21.2358 423.589 21.4659 424.487 21.4659ZM435.501 15.125V23H433.489V9.90909H435.433V11.9545H435.603C435.91 11.2898 436.376 10.7557 437.001 10.3523C437.626 9.94318 438.433 9.73864 439.421 9.73864C440.308 9.73864 441.083 9.92045 441.748 10.2841C442.413 10.642 442.93 11.1875 443.299 11.9205C443.668 12.6477 443.853 13.5682 443.853 14.6818V23H441.842V14.8182C441.842 13.7898 441.575 12.9886 441.04 12.4148C440.506 11.8352 439.773 11.5455 438.842 11.5455C438.2 11.5455 437.626 11.6847 437.12 11.9631C436.62 12.2415 436.225 12.6477 435.935 13.1818C435.646 13.7159 435.501 14.3636 435.501 15.125ZM452.472 23.2727C451.381 23.2727 450.418 22.9972 449.582 22.446C448.747 21.8892 448.094 21.1051 447.622 20.0938C447.151 19.0767 446.915 17.875 446.915 16.4886C446.915 15.1136 447.151 13.9205 447.622 12.9091C448.094 11.8977 448.75 11.1165 449.591 10.5653C450.432 10.0142 451.403 9.73864 452.506 9.73864C453.358 9.73864 454.031 9.88068 454.526 10.1648C455.026 10.4432 455.406 10.7614 455.668 11.1193C455.935 11.4716 456.142 11.7614 456.29 11.9886H456.46V5.54545H458.472V23H456.528V20.9886H456.29C456.142 21.2273 455.932 21.5284 455.659 21.892C455.386 22.25 454.997 22.571 454.491 22.8551C453.986 23.1335 453.313 23.2727 452.472 23.2727ZM452.744 21.4659C453.551 21.4659 454.233 21.2557 454.79 20.8352C455.347 20.4091 455.77 19.821 456.06 19.071C456.349 18.3153 456.494 17.4432 456.494 16.4545C456.494 15.4773 456.352 14.6222 456.068 13.8892C455.784 13.1506 455.364 12.5767 454.807 12.1676C454.25 11.7528 453.563 11.5455 452.744 11.5455C451.892 11.5455 451.182 11.7642 450.614 12.2017C450.051 12.6335 449.628 13.2216 449.344 13.9659C449.065 14.7045 448.926 15.5341 448.926 16.4545C448.926 17.3864 449.068 18.233 449.352 18.9943C449.642 19.75 450.068 20.3523 450.631 20.8011C451.199 21.2443 451.903 21.4659 452.744 21.4659ZM462.435 23V9.90909H464.446V23H462.435ZM463.457 7.72727C463.065 7.72727 462.727 7.59375 462.443 7.3267C462.165 7.05966 462.026 6.73864 462.026 6.36364C462.026 5.98864 462.165 5.66761 462.443 5.40057C462.727 5.13352 463.065 5 463.457 5C463.849 5 464.185 5.13352 464.463 5.40057C464.747 5.66761 464.889 5.98864 464.889 6.36364C464.889 6.73864 464.747 7.05966 464.463 7.3267C464.185 7.59375 463.849 7.72727 463.457 7.72727ZM473.823 9.90909V11.6136H467.039V9.90909H473.823ZM469.016 6.77273H471.028V19.25C471.028 19.8182 471.11 20.2443 471.275 20.5284C471.445 20.8068 471.661 20.9943 471.923 21.0909C472.19 21.1818 472.471 21.2273 472.766 21.2273C472.988 21.2273 473.17 21.2159 473.312 21.1932C473.454 21.1648 473.567 21.142 473.653 21.125L474.062 22.9318C473.925 22.983 473.735 23.0341 473.491 23.0852C473.246 23.142 472.937 23.1705 472.562 23.1705C471.994 23.1705 471.437 23.0483 470.891 22.804C470.352 22.5597 469.903 22.1875 469.545 21.6875C469.192 21.1875 469.016 20.5568 469.016 19.7955V6.77273ZM476.849 23V9.90909H478.86V23H476.849ZM477.871 7.72727C477.479 7.72727 477.141 7.59375 476.857 7.3267C476.579 7.05966 476.44 6.73864 476.44 6.36364C476.44 5.98864 476.579 5.66761 476.857 5.40057C477.141 5.13352 477.479 5 477.871 5C478.263 5 478.599 5.13352 478.877 5.40057C479.161 5.66761 479.303 5.98864 479.303 6.36364C479.303 6.73864 479.161 7.05966 478.877 7.3267C478.599 7.59375 478.263 7.72727 477.871 7.72727ZM487.862 23.2727C486.68 23.2727 485.643 22.9915 484.751 22.429C483.865 21.8665 483.172 21.0795 482.672 20.0682C482.178 19.0568 481.93 17.875 481.93 16.5227C481.93 15.1591 482.178 13.9687 482.672 12.9517C483.172 11.9347 483.865 11.1449 484.751 10.5824C485.643 10.0199 486.68 9.73864 487.862 9.73864C489.044 9.73864 490.078 10.0199 490.964 10.5824C491.857 11.1449 492.55 11.9347 493.044 12.9517C493.544 13.9687 493.794 15.1591 493.794 16.5227C493.794 17.875 493.544 19.0568 493.044 20.0682C492.55 21.0795 491.857 21.8665 490.964 22.429C490.078 22.9915 489.044 23.2727 487.862 23.2727ZM487.862 21.4659C488.76 21.4659 489.499 21.2358 490.078 20.7756C490.658 20.3153 491.087 19.7102 491.365 18.9602C491.643 18.2102 491.783 17.3977 491.783 16.5227C491.783 15.6477 491.643 14.8324 491.365 14.0767C491.087 13.321 490.658 12.7102 490.078 12.2443C489.499 11.7784 488.76 11.5455 487.862 11.5455C486.964 11.5455 486.226 11.7784 485.646 12.2443C485.067 12.7102 484.638 13.321 484.359 14.0767C484.081 14.8324 483.942 15.6477 483.942 16.5227C483.942 17.3977 484.081 18.2102 484.359 18.9602C484.638 19.7102 485.067 20.3153 485.646 20.7756C486.226 21.2358 486.964 21.4659 487.862 21.4659ZM498.876 15.125V23H496.864V9.90909H498.808V11.9545H498.978C499.285 11.2898 499.751 10.7557 500.376 10.3523C501.001 9.94318 501.808 9.73864 502.796 9.73864C503.683 9.73864 504.458 9.92045 505.123 10.2841C505.788 10.642 506.305 11.1875 506.674 11.9205C507.043 12.6477 507.228 13.5682 507.228 14.6818V23H505.217V14.8182C505.217 13.7898 504.95 12.9886 504.415 12.4148C503.881 11.8352 503.148 11.5455 502.217 11.5455C501.575 11.5455 501.001 11.6847 500.495 11.9631C499.995 12.2415 499.6 12.6477 499.31 13.1818C499.021 13.7159 498.876 14.3636 498.876 15.125ZM520.176 12.8409L518.369 13.3523C518.256 13.0511 518.088 12.7585 517.866 12.4744C517.651 12.1847 517.355 11.946 516.98 11.7585C516.605 11.571 516.125 11.4773 515.54 11.4773C514.739 11.4773 514.071 11.6619 513.537 12.0312C513.009 12.3949 512.744 12.858 512.744 13.4205C512.744 13.9205 512.926 14.3153 513.29 14.6051C513.653 14.8949 514.222 15.1364 514.994 15.3295L516.938 15.8068C518.108 16.0909 518.98 16.5256 519.554 17.1108C520.128 17.6903 520.415 18.4375 520.415 19.3523C520.415 20.1023 520.199 20.7727 519.767 21.3636C519.341 21.9545 518.744 22.4205 517.977 22.7614C517.21 23.1023 516.318 23.2727 515.301 23.2727C513.966 23.2727 512.861 22.983 511.986 22.4034C511.111 21.8239 510.557 20.9773 510.324 19.8636L512.233 19.3864C512.415 20.0909 512.759 20.6193 513.264 20.9716C513.776 21.3239 514.443 21.5 515.267 21.5C516.205 21.5 516.949 21.3011 517.5 20.9034C518.057 20.5 518.335 20.017 518.335 19.4545C518.335 19 518.176 18.6193 517.858 18.3125C517.54 18 517.051 17.767 516.392 17.6136L514.21 17.1023C513.011 16.8182 512.131 16.3778 511.568 15.7812C511.011 15.179 510.733 14.4261 510.733 13.5227C510.733 12.7841 510.94 12.1307 511.355 11.5625C511.776 10.9943 512.347 10.5483 513.068 10.2244C513.795 9.90057 514.619 9.73864 515.54 9.73864C516.835 9.73864 517.852 10.0227 518.591 10.5909C519.335 11.1591 519.864 11.9091 520.176 12.8409ZM543.965 23V5.54545H549.863C551.232 5.54545 552.352 5.79261 553.221 6.28693C554.096 6.77557 554.744 7.4375 555.164 8.27273C555.585 9.10795 555.795 10.0398 555.795 11.0682C555.795 12.0966 555.585 13.0312 555.164 13.8722C554.749 14.7131 554.107 15.3835 553.238 15.8835C552.369 16.3778 551.255 16.625 549.897 16.625H545.67V14.75H549.829C550.766 14.75 551.519 14.5881 552.087 14.2642C552.656 13.9403 553.067 13.5028 553.323 12.9517C553.585 12.3949 553.715 11.767 553.715 11.0682C553.715 10.3693 553.585 9.74432 553.323 9.19318C553.067 8.64205 552.653 8.21023 552.079 7.89773C551.505 7.57955 550.744 7.42045 549.795 7.42045H546.079V23H543.965ZM558.927 23V9.90909H560.87V11.8864H561.006C561.245 11.2386 561.677 10.7131 562.302 10.3097C562.927 9.90625 563.631 9.70454 564.415 9.70454C564.563 9.70454 564.748 9.70739 564.969 9.71307C565.191 9.71875 565.359 9.72727 565.472 9.73864V11.7841C565.404 11.767 565.248 11.7415 565.004 11.7074C564.765 11.6676 564.512 11.6477 564.245 11.6477C563.609 11.6477 563.04 11.7812 562.54 12.0483C562.046 12.3097 561.654 12.6733 561.364 13.1392C561.08 13.5994 560.938 14.125 560.938 14.7159V23H558.927ZM567.857 23V9.90909H569.868V23H567.857ZM568.879 7.72727C568.487 7.72727 568.149 7.59375 567.865 7.3267C567.587 7.05966 567.447 6.73864 567.447 6.36364C567.447 5.98864 567.587 5.66761 567.865 5.40057C568.149 5.13352 568.487 5 568.879 5C569.271 5 569.607 5.13352 569.885 5.40057C570.169 5.66761 570.311 5.98864 570.311 6.36364C570.311 6.73864 570.169 7.05966 569.885 7.3267C569.607 7.59375 569.271 7.72727 568.879 7.72727ZM584.256 9.90909L579.415 23H577.37L572.529 9.90909H574.711L578.325 20.3409H578.461L582.075 9.90909H584.256ZM590.365 23.3068C589.536 23.3068 588.783 23.1506 588.107 22.8381C587.43 22.5199 586.893 22.0625 586.496 21.4659C586.098 20.8636 585.899 20.1364 585.899 19.2841C585.899 18.5341 586.047 17.9261 586.342 17.4602C586.638 16.9886 587.033 16.6193 587.527 16.3523C588.021 16.0852 588.567 15.8864 589.163 15.7557C589.766 15.6193 590.371 15.5114 590.979 15.4318C591.774 15.3295 592.419 15.2528 592.913 15.2017C593.413 15.1449 593.777 15.0511 594.004 14.9205C594.237 14.7898 594.354 14.5625 594.354 14.2386V14.1705C594.354 13.3295 594.124 12.6761 593.663 12.2102C593.209 11.7443 592.518 11.5114 591.592 11.5114C590.632 11.5114 589.879 11.7216 589.334 12.142C588.788 12.5625 588.405 13.0114 588.183 13.4886L586.274 12.8068C586.615 12.0114 587.07 11.392 587.638 10.9489C588.212 10.5 588.837 10.1875 589.513 10.0114C590.195 9.82955 590.865 9.73864 591.524 9.73864C591.945 9.73864 592.428 9.78977 592.973 9.89204C593.524 9.98864 594.055 10.1903 594.567 10.4972C595.084 10.804 595.513 11.267 595.854 11.8864C596.195 12.5057 596.365 13.3352 596.365 14.375V23H594.354V21.2273H594.251C594.115 21.5114 593.888 21.8153 593.57 22.1392C593.251 22.4631 592.828 22.7386 592.3 22.9659C591.771 23.1932 591.126 23.3068 590.365 23.3068ZM590.672 21.5C591.467 21.5 592.138 21.3438 592.683 21.0312C593.234 20.7188 593.649 20.3153 593.928 19.821C594.212 19.3267 594.354 18.8068 594.354 18.2614V16.4205C594.268 16.5227 594.081 16.6165 593.791 16.7017C593.507 16.7812 593.178 16.8523 592.803 16.9148C592.433 16.9716 592.072 17.0227 591.72 17.0682C591.374 17.108 591.092 17.142 590.876 17.1705C590.354 17.2386 589.865 17.3494 589.411 17.5028C588.962 17.6506 588.598 17.875 588.32 18.1761C588.047 18.4716 587.911 18.875 587.911 19.3864C587.911 20.0852 588.169 20.6136 588.686 20.9716C589.209 21.3239 589.871 21.5 590.672 21.5ZM605.354 23.2727C604.127 23.2727 603.07 22.983 602.184 22.4034C601.298 21.8239 600.616 21.0256 600.138 20.0085C599.661 18.9915 599.423 17.8295 599.423 16.5227C599.423 15.1932 599.667 14.0199 600.156 13.0028C600.65 11.9801 601.337 11.1818 602.218 10.608C603.104 10.0284 604.138 9.73864 605.32 9.73864C606.241 9.73864 607.07 9.90909 607.809 10.25C608.548 10.5909 609.153 11.0682 609.624 11.6818C610.096 12.2955 610.388 13.0114 610.502 13.8295H608.491C608.337 13.233 607.996 12.7045 607.468 12.2443C606.945 11.7784 606.241 11.5455 605.354 11.5455C604.57 11.5455 603.883 11.75 603.292 12.1591C602.707 12.5625 602.249 13.1335 601.92 13.8722C601.596 14.6051 601.434 15.4659 601.434 16.4545C601.434 17.4659 601.593 18.3466 601.911 19.0966C602.235 19.8466 602.69 20.429 603.275 20.8438C603.866 21.2585 604.559 21.4659 605.354 21.4659C605.877 21.4659 606.352 21.375 606.778 21.1932C607.204 21.0114 607.565 20.75 607.86 20.4091C608.156 20.0682 608.366 19.6591 608.491 19.1818H610.502C610.388 19.9545 610.107 20.6506 609.658 21.2699C609.215 21.8835 608.627 22.3722 607.894 22.7358C607.167 23.0938 606.32 23.2727 605.354 23.2727ZM614.738 27.9091C614.397 27.9091 614.093 27.8807 613.826 27.8239C613.559 27.7727 613.374 27.7216 613.272 27.6705L613.783 25.8977C614.272 26.0227 614.704 26.0682 615.079 26.0341C615.454 26 615.786 25.8324 616.076 25.5312C616.371 25.2358 616.641 24.7557 616.886 24.0909L617.261 23.0682L612.42 9.90909H614.602L618.215 20.3409H618.352L621.965 9.90909H624.147L618.59 24.9091C618.34 25.5852 618.031 26.1449 617.661 26.5881C617.292 27.0369 616.863 27.3693 616.374 27.5852C615.891 27.8011 615.346 27.9091 614.738 27.9091ZM655.302 17.6477V9.90909H657.313V23H655.302V20.7841H655.165C654.859 21.4489 654.381 22.0142 653.734 22.4801C653.086 22.9403 652.268 23.1705 651.279 23.1705C650.461 23.1705 649.734 22.9915 649.097 22.6335C648.461 22.2699 647.961 21.7244 647.597 20.9972C647.234 20.2642 647.052 19.3409 647.052 18.2273V9.90909H649.063V18.0909C649.063 19.0455 649.33 19.8068 649.864 20.375C650.404 20.9432 651.092 21.2273 651.927 21.2273C652.427 21.2273 652.935 21.0994 653.452 20.8438C653.975 20.5881 654.413 20.196 654.765 19.6676C655.123 19.1392 655.302 18.4659 655.302 17.6477ZM670.27 12.8409L668.463 13.3523C668.349 13.0511 668.182 12.7585 667.96 12.4744C667.744 12.1847 667.449 11.946 667.074 11.7585C666.699 11.571 666.219 11.4773 665.634 11.4773C664.832 11.4773 664.165 11.6619 663.631 12.0312C663.102 12.3949 662.838 12.858 662.838 13.4205C662.838 13.9205 663.02 14.3153 663.384 14.6051C663.747 14.8949 664.315 15.1364 665.088 15.3295L667.031 15.8068C668.202 16.0909 669.074 16.5256 669.648 17.1108C670.222 17.6903 670.509 18.4375 670.509 19.3523C670.509 20.1023 670.293 20.7727 669.861 21.3636C669.435 21.9545 668.838 22.4205 668.071 22.7614C667.304 23.1023 666.412 23.2727 665.395 23.2727C664.06 23.2727 662.955 22.983 662.08 22.4034C661.205 21.8239 660.651 20.9773 660.418 19.8636L662.327 19.3864C662.509 20.0909 662.852 20.6193 663.358 20.9716C663.869 21.3239 664.537 21.5 665.361 21.5C666.298 21.5 667.043 21.3011 667.594 20.9034C668.151 20.5 668.429 20.017 668.429 19.4545C668.429 19 668.27 18.6193 667.952 18.3125C667.634 18 667.145 17.767 666.486 17.6136L664.304 17.1023C663.105 16.8182 662.224 16.3778 661.662 15.7812C661.105 15.179 660.827 14.4261 660.827 13.5227C660.827 12.7841 661.034 12.1307 661.449 11.5625C661.869 10.9943 662.44 10.5483 663.162 10.2244C663.889 9.90057 664.713 9.73864 665.634 9.73864C666.929 9.73864 667.946 10.0227 668.685 10.5909C669.429 11.1591 669.957 11.9091 670.27 12.8409ZM680.559 23V5.54545H691.093V7.42045H682.673V13.3182H690.548V15.1932H682.673V21.125H691.229V23H680.559ZM696.641 15.125V23H694.63V9.90909H696.573V11.9545H696.744C697.05 11.2898 697.516 10.7557 698.141 10.3523C698.766 9.94318 699.573 9.73864 700.562 9.73864C701.448 9.73864 702.224 9.92045 702.888 10.2841C703.553 10.642 704.07 11.1875 704.44 11.9205C704.809 12.6477 704.994 13.5682 704.994 14.6818V23H702.982V14.8182C702.982 13.7898 702.715 12.9886 702.181 12.4148C701.647 11.8352 700.914 11.5455 699.982 11.5455C699.34 11.5455 698.766 11.6847 698.261 11.9631C697.761 12.2415 697.366 12.6477 697.076 13.1818C696.786 13.7159 696.641 14.3636 696.641 15.125ZM713.953 28.1818C712.982 28.1818 712.146 28.0568 711.447 27.8068C710.749 27.5625 710.166 27.2386 709.7 26.8352C709.24 26.4375 708.874 26.0114 708.601 25.5568L710.203 24.4318C710.385 24.6705 710.615 24.9432 710.893 25.25C711.172 25.5625 711.553 25.8324 712.036 26.0597C712.524 26.2926 713.163 26.4091 713.953 26.4091C715.01 26.4091 715.882 26.1534 716.57 25.642C717.257 25.1307 717.601 24.3295 717.601 23.2386V20.5795H717.43C717.283 20.8182 717.072 21.1136 716.8 21.4659C716.533 21.8125 716.146 22.1222 715.641 22.3949C715.141 22.6619 714.464 22.7955 713.612 22.7955C712.555 22.7955 711.607 22.5455 710.766 22.0455C709.93 21.5455 709.268 20.8182 708.78 19.8636C708.297 18.9091 708.055 17.75 708.055 16.3864C708.055 15.0455 708.291 13.8778 708.763 12.8835C709.234 11.8835 709.891 11.1108 710.732 10.5653C711.572 10.0142 712.544 9.73864 713.646 9.73864C714.499 9.73864 715.175 9.88068 715.675 10.1648C716.18 10.4432 716.567 10.7614 716.834 11.1193C717.107 11.4716 717.317 11.7614 717.464 11.9886H717.669V9.90909H719.612V23.375C719.612 24.5 719.357 25.4148 718.845 26.1193C718.339 26.8295 717.658 27.3494 716.8 27.679C715.947 28.0142 714.999 28.1818 713.953 28.1818ZM713.885 20.9886C714.692 20.9886 715.374 20.804 715.93 20.4347C716.487 20.0653 716.911 19.5341 717.2 18.8409C717.49 18.1477 717.635 17.3182 717.635 16.3523C717.635 15.4091 717.493 14.5767 717.209 13.8551C716.925 13.1335 716.504 12.5682 715.947 12.1591C715.391 11.75 714.703 11.5455 713.885 11.5455C713.033 11.5455 712.322 11.7614 711.754 12.1932C711.192 12.625 710.768 13.2045 710.484 13.9318C710.206 14.6591 710.067 15.4659 710.067 16.3523C710.067 17.2614 710.209 18.0653 710.493 18.7642C710.783 19.4574 711.209 20.0028 711.771 20.4006C712.339 20.7926 713.044 20.9886 713.885 20.9886ZM725.305 5.54545V23H723.294V5.54545H725.305ZM728.989 23V9.90909H731.001V23H728.989ZM730.012 7.72727C729.62 7.72727 729.282 7.59375 728.998 7.3267C728.719 7.05966 728.58 6.73864 728.58 6.36364C728.58 5.98864 728.719 5.66761 728.998 5.40057C729.282 5.13352 729.62 5 730.012 5C730.404 5 730.739 5.13352 731.018 5.40057C731.302 5.66761 731.444 5.98864 731.444 6.36364C731.444 6.73864 731.302 7.05966 731.018 7.3267C730.739 7.59375 730.404 7.72727 730.012 7.72727ZM743.957 12.8409L742.151 13.3523C742.037 13.0511 741.869 12.7585 741.648 12.4744C741.432 12.1847 741.136 11.946 740.761 11.7585C740.386 11.571 739.906 11.4773 739.321 11.4773C738.52 11.4773 737.852 11.6619 737.318 12.0312C736.79 12.3949 736.526 12.858 736.526 13.4205C736.526 13.9205 736.707 14.3153 737.071 14.6051C737.435 14.8949 738.003 15.1364 738.776 15.3295L740.719 15.8068C741.889 16.0909 742.761 16.5256 743.335 17.1108C743.909 17.6903 744.196 18.4375 744.196 19.3523C744.196 20.1023 743.98 20.7727 743.548 21.3636C743.122 21.9545 742.526 22.4205 741.759 22.7614C740.991 23.1023 740.099 23.2727 739.082 23.2727C737.747 23.2727 736.642 22.983 735.767 22.4034C734.892 21.8239 734.338 20.9773 734.105 19.8636L736.014 19.3864C736.196 20.0909 736.54 20.6193 737.045 20.9716C737.557 21.3239 738.224 21.5 739.048 21.5C739.986 21.5 740.73 21.3011 741.281 20.9034C741.838 20.5 742.116 20.017 742.116 19.4545C742.116 19 741.957 18.6193 741.639 18.3125C741.321 18 740.832 17.767 740.173 17.6136L737.991 17.1023C736.793 16.8182 735.912 16.3778 735.349 15.7812C734.793 15.179 734.514 14.4261 734.514 13.5227C734.514 12.7841 734.722 12.1307 735.136 11.5625C735.557 10.9943 736.128 10.5483 736.849 10.2244C737.577 9.90057 738.401 9.73864 739.321 9.73864C740.616 9.73864 741.634 10.0227 742.372 10.5909C743.116 11.1591 743.645 11.9091 743.957 12.8409ZM749.235 15.125V23H747.224V5.54545H749.235V11.9545H749.406C749.712 11.2784 750.173 10.7415 750.786 10.3438C751.406 9.94034 752.229 9.73864 753.258 9.73864C754.15 9.73864 754.931 9.91761 755.602 10.2756C756.272 10.6278 756.792 11.1705 757.161 11.9034C757.536 12.6307 757.724 13.5568 757.724 14.6818V23H755.712V14.8182C755.712 13.7784 755.442 12.9744 754.903 12.4062C754.369 11.8324 753.627 11.5455 752.678 11.5455C752.019 11.5455 751.428 11.6847 750.906 11.9631C750.388 12.2415 749.979 12.6477 749.678 13.1818C749.383 13.7159 749.235 14.3636 749.235 15.125Z" fill="white"/>
</svg>
